<?xml version="1.0" encoding="UTF-8"?>
<svg version="1.1" xmlns="http://www.w3.org/2000/svg" width="542" height="125">
<path d="M0 0 C5.28 0 10.56 0 16 0 C16.33 17.16 16.66 34.32 17 52 C19.31 49.69 21.62 47.38 24 45 C24.13210475 42.13079138 24.13210475 42.13079138 23 40 C25.41509441 39.32713788 27.83180356 38.66153988 30.25 38 C30.93191406 37.80921875 31.61382812 37.6184375 32.31640625 37.421875 C35.70600912 36.50042956 38.45778976 36 42 36 C40.83795007 42.54849313 39.26616615 48.74538144 37 55 C35.35 54.34 33.7 53.68 32 53 C31.5875 53.41773682 31.175 53.83547363 30.75 54.26586914 C16.93736488 68.23073615 16.93736488 68.23073615 10.8984375 73.3203125 C7.56678411 76.26807167 4.49843479 79.48383507 1.39453125 82.66796875 C-0.95737103 84.95848369 -3.40368854 86.99396894 -6 89 C-10.29067546 87.34763349 -13.1429553 84.1094793 -16.296875 80.8984375 C-16.89050842 80.30197418 -17.48414185 79.70551086 -18.09576416 79.0909729 C-19.98526627 77.1903019 -21.86768392 75.28278526 -23.75 73.375 C-25.03209065 72.08287532 -26.31463761 70.79120324 -27.59765625 69.5 C-30.73708432 66.33855521 -33.87017801 63.1709539 -37 60 C-45.23212265 65.60768504 -51.87841795 72.72369278 -58.8125 79.8125 C-61.22992325 82.28308821 -63.65389626 84.74697532 -66.08203125 87.20703125 C-66.632043 87.77363968 -67.18205475 88.34024811 -67.74873352 88.92402649 C-70.14666726 91.3527502 -71.71409531 92.90469844 -75 94 C-73.95135679 91.57226745 -72.92151756 89.91713402 -71.08984375 87.9831543 C-62.70706739 78.84444472 -63.8789466 68.56332625 -64 56.8125 C-63.99189649 54.7909979 -63.98020861 52.76950682 -63.96484375 50.74804688 C-63.93519759 45.83118503 -63.95418321 40.91671409 -64 36 C-58.72 36 -53.44 36 -48 36 C-47.67 42.27 -47.34 48.54 -47 55 C-43.75812614 50.67750152 -43.60537223 49.63637823 -43.48828125 44.484375 C-43.45283203 43.23398437 -43.41738281 41.98359375 -43.38085938 40.6953125 C-43.35830078 39.39335938 -43.33574219 38.09140625 -43.3125 36.75 C-43.27833984 35.43257812 -43.24417969 34.11515625 -43.20898438 32.7578125 C-43.1264984 29.50550829 -43.06157327 26.25276733 -43 23 C-37.39 23 -31.78 23 -26 23 C-25.95101562 25.35898437 -25.90203125 27.71796875 -25.8515625 30.1484375 C-25.79757897 32.42877645 -25.74026128 34.70900882 -25.68261719 36.98925781 C-25.64429415 38.57609138 -25.60944712 40.16301281 -25.578125 41.75 C-25.53254569 44.02896566 -25.47454162 46.30732468 -25.4140625 48.5859375 C-25.40251129 49.29744965 -25.39096008 50.00896179 -25.37905884 50.74203491 C-25.36591761 54.82103657 -25.36591761 54.82103657 -23 58 C-22.67 42.82 -22.34 27.64 -22 12 C-16.39 12 -10.78 12 -5 12 C-4.67 31.8 -4.34 51.6 -4 72 C-0.33622828 68.33622828 -0.61342312 67.35385813 -0.56762695 62.32543945 C-0.5574353 61.652005 -0.54724365 60.97857056 -0.53674316 60.284729 C-0.50657094 58.06082893 -0.49734125 55.83735926 -0.48828125 53.61328125 C-0.47143761 52.07055729 -0.45328779 50.52784708 -0.43388367 48.9851532 C-0.38634296 44.92622169 -0.35656017 40.86734591 -0.33044434 36.80822754 C-0.30065918 32.66565948 -0.25412189 28.52328357 -0.20898438 24.38085938 C-0.12290487 16.25398455 -0.05712884 8.12712996 0 0 Z " fill="#2EFE34" transform="translate(75,0)"/>
<path d="M0 0 C6.538125 -0.0825 13.07625 -0.165 19.8125 -0.25 C21.85284424 -0.28641602 23.89318848 -0.32283203 25.99536133 -0.36035156 C38.40457072 -0.49066981 49.01778226 0.0750992 58.41015625 9.16015625 C63.32015188 14.84223964 63.97956059 21.75422806 64 29 C63.48919463 35.89587255 60.89533046 41.10466954 56 46 C53.125 47.5 53.125 47.5 51 48 C54.23479946 54.29852779 58.01687703 59.90356351 62.328125 65.51953125 C63.89491104 67.8440853 64.42617545 69.32321473 65 72 C45.49313419 73.79920137 45.49313419 73.79920137 39.8984375 69.76171875 C37.90776539 66.92174445 36.41708026 64.16017591 35 61 C34.19310646 59.79437837 33.36531549 58.60190105 32.5 57.4375 C31 55 31 55 31 53 C27.37 53 23.74 53 20 53 C20 59.27 20 65.54 20 72 C13.4 72 6.8 72 0 72 C0 48.24 0 24.48 0 0 Z M20 17 C20 23.27 20 29.54 20 36 C22.536875 36.061875 25.07375 36.12375 27.6875 36.1875 C28.87218872 36.22846802 28.87218872 36.22846802 30.08081055 36.27026367 C34.59210544 36.32331089 37.50229312 35.91146222 41 33 C42.43968231 30.44238256 42.87846867 27.92227607 43 25 C41.93910122 21.81730365 41.1460024 19.82735783 38.3984375 17.84375 C34.88006497 16.60601634 31.42704892 16.79119473 27.75 16.875 C23.91375 16.936875 23.91375 16.936875 20 17 Z " fill="#FFFFFF" transform="translate(155,30)"/>
<path d="M0 0 C6.6 0 13.2 0 20 0 C20 25.08 20 50.16 20 76 C13.73 76 7.46 76 1 76 C0.67 75.01 0.34 74.02 0 73 C-0.845625 73.495 -1.69125 73.99 -2.5625 74.5 C-9.41792975 77.39823046 -17.93451004 77.19729743 -24.984375 75.12109375 C-32.47003833 71.68449377 -37.26077373 66.60032749 -40.39575195 58.98925781 C-41.49355633 55.37515274 -41.4319447 51.81135931 -41.375 48.0625 C-41.38660156 47.30259766 -41.39820313 46.54269531 -41.41015625 45.75976562 C-41.36943609 37.81254865 -39.12816222 31.42815013 -33.75 25.5390625 C-28.3158528 20.75992411 -21.86310779 18.84925267 -14.75 18.75 C-13.10257812 18.71132813 -13.10257812 18.71132813 -11.421875 18.671875 C-8 19 -8 19 -1 22 C-0.67 14.74 -0.34 7.48 0 0 Z M-19 39 C-21.56195926 43.20266605 -21.69043639 47.20021933 -21 52 C-18.9949912 55.8026029 -17.57313738 57.61790841 -14 60 C-10.69428522 60.43660384 -8.18580613 60.71042728 -5.24609375 58.94921875 C-2.14287554 56.41430074 -0.187244 54.63704751 0.2734375 50.609375 C0.58688941 44.12712142 0.58688941 44.12712142 -2 38.375 C-5.19252044 35.84758799 -7.00987232 34.98067335 -11.00390625 34.76171875 C-14.44405138 35.17238187 -16.45378542 36.7569062 -19 39 Z " fill="#FFFFFF" transform="translate(330,26)"/>
<path d="M0 0 C0.495 0.99 0.495 0.99 1 2 C-6.43408858 11.95435725 -13.92398562 21.86393427 -21.47851562 31.72729492 C-25.07176772 36.42840658 -28.59305357 41.16200478 -32 46 C-36.29067546 44.34763349 -39.1429553 41.1094793 -42.296875 37.8984375 C-42.89050842 37.30197418 -43.48414185 36.70551086 -44.09576416 36.0909729 C-45.98526627 34.1903019 -47.86768392 32.28278526 -49.75 30.375 C-51.03209065 29.08287532 -52.31463761 27.79120324 -53.59765625 26.5 C-56.73708432 23.33855521 -59.87017801 20.1709539 -63 17 C-66.15204981 18.39347376 -68.26171773 20.02485079 -70.671875 22.4765625 C-71.33574219 23.146875 -71.99960938 23.8171875 -72.68359375 24.5078125 C-73.36550781 25.20648438 -74.04742187 25.90515625 -74.75 26.625 C-75.44738281 27.33140625 -76.14476563 28.0378125 -76.86328125 28.765625 C-78.58012488 30.50598703 -80.29211832 32.25084981 -82 34 C-78.55344588 41.39414914 -70.65403221 44.41338949 -63.359375 47.23828125 C-50.39139276 51.42496426 -36.24651033 49.62325517 -24.21875 43.609375 C-21.71815757 42.17831307 -19.35671158 40.65595486 -17 39 C-16.36449219 38.56042969 -15.72898437 38.12085938 -15.07421875 37.66796875 C-4.71847642 29.70024682 0.10178408 16.79412444 1.75 4.1875 C1.8325 3.135625 1.915 2.08375 2 1 C5.63 1 9.26 1 13 1 C12.41176393 19.23531816 6.18461094 33.32741279 -7 46 C-22.60588826 58.97965464 -39.35114185 61.36971003 -59 60 C-74.11991177 58.04765832 -86.79101831 49.01070814 -96.83984375 37.98046875 C-98 36 -98 36 -97.74633789 34.0546875 C-96.4447136 30.4712822 -93.29147695 28.28511155 -90.5 25.8125 C-85.99324809 21.74424882 -81.58662441 17.62989398 -77.36328125 13.265625 C-76.60402344 12.48340576 -75.84476563 11.70118652 -75.0625 10.89526367 C-73.5773203 9.35545334 -72.10179766 7.80626231 -70.63671875 6.24731445 C-69.95867187 5.54823975 -69.280625 4.84916504 -68.58203125 4.12890625 C-67.98624268 3.50056885 -67.3904541 2.87223145 -66.77661133 2.22485352 C-65 1 -65 1 -63.07225037 1.26342773 C-59.56711504 2.50931265 -57.26310336 5.33224881 -54.703125 7.93359375 C-54.10949158 8.52672867 -53.51585815 9.11986359 -52.90423584 9.73097229 C-51.65341498 10.98413069 -50.40627889 12.24097635 -49.16259766 13.5012207 C-47.25191667 15.43555959 -45.32819803 17.35617044 -43.40234375 19.27539062 C-42.18930865 20.4940003 -40.97704196 21.71337547 -39.765625 22.93359375 C-39.18758118 23.51072617 -38.60953735 24.08785858 -38.01397705 24.68247986 C-34 28.76896959 -34 28.76896959 -34 31 C-27.06941312 25.62497571 -20.78629669 19.93300934 -14.65234375 13.68359375 C-11.06742834 10.03820989 -7.39460759 6.57359742 -3.48828125 3.26953125 C-1.87189265 1.92460715 -1.87189265 1.92460715 0 0 Z " fill="#00B7FF" transform="translate(101,65)"/>
<path d="M0 0 C5.74178934 3.26768499 8.45314046 7.85942139 10.5 14 C10.58567246 15.36592183 10.61773647 16.73564858 10.61352539 18.10424805 C10.61344986 18.92487228 10.61337433 19.74549652 10.61329651 20.59098816 C10.60813522 21.47232925 10.60297394 22.35367035 10.59765625 23.26171875 C10.5962413 24.16751175 10.59482635 25.07330475 10.59336853 26.00654602 C10.58777001 28.90023091 10.57521781 31.79383849 10.5625 34.6875 C10.55748481 36.64908742 10.55292193 38.61067606 10.54882812 40.57226562 C10.53865187 45.38156418 10.51907613 50.19069553 10.5 55 C3.9 55 -2.7 55 -9.5 55 C-9.56058594 52.59203125 -9.62117188 50.1840625 -9.68359375 47.703125 C-9.7454331 45.3665061 -9.80880007 43.02993327 -9.87231445 40.69335938 C-9.91557931 39.07165643 -9.95726028 37.44991042 -9.99731445 35.828125 C-10.05522214 33.49465973 -10.11885698 31.16140957 -10.18359375 28.828125 C-10.20030624 28.10506165 -10.21701874 27.38199829 -10.23423767 26.63702393 C-10.33202649 23.30109444 -10.4845665 20.19445984 -11.5 17 C-12.91433206 16.7763663 -14.33167618 16.57173524 -15.75 16.375 C-16.53890625 16.25898437 -17.3278125 16.14296875 -18.140625 16.0234375 C-20.91909296 15.99583682 -22.22562897 16.41571591 -24.5 18 C-26.95066158 21.61167487 -26.84461616 25.39379474 -26.9140625 29.609375 C-26.93342865 30.33618469 -26.9527948 31.06299438 -26.9727478 31.81182861 C-27.03234271 34.12443448 -27.07884758 36.43709067 -27.125 38.75 C-27.16319836 40.32163582 -27.20225117 41.89325113 -27.2421875 43.46484375 C-27.33963062 47.30978671 -27.4193553 51.15452137 -27.5 55 C-34.1 55 -40.7 55 -47.5 55 C-47.5 36.52 -47.5 18.04 -47.5 -1 C-41.23 -1 -34.96 -1 -28.5 -1 C-28.17 -0.01 -27.84 0.98 -27.5 2 C-26.75169922 1.566875 -26.75169922 1.566875 -25.98828125 1.125 C-17.63247632 -3.19541619 -8.70643295 -3.82771642 0 0 Z " fill="#FFFFFF" transform="translate(408.5,47)"/>
<path d="M0 0 C5.55849288 6.04894814 6.71371996 12.99175894 6.515625 20.94140625 C6.50996521 21.81651352 6.50430542 22.69162079 6.49847412 23.59324646 C6.47630435 26.35441706 6.42614771 29.11422993 6.375 31.875 C6.3549098 33.7610488 6.33666347 35.6471182 6.3203125 37.53320312 C6.27992545 42.12723015 6.20160433 46.71836794 6.125 51.3125 C0.185 51.3125 -5.755 51.3125 -11.875 51.3125 C-12.37 49.3325 -12.37 49.3325 -12.875 47.3125 C-13.7 47.9725 -14.525 48.6325 -15.375 49.3125 C-21.47429134 52.81209339 -29.10906071 52.00734231 -35.875 51.3125 C-40.88983354 49.8192295 -43.95324124 46.58276281 -46.875 42.3125 C-48.97052467 38.12145066 -48.28720622 32.87663839 -47.875 28.3125 C-45.72691298 23.30029695 -42.81110109 21.34864566 -38.0703125 19.07421875 C-32.61594976 17.18169075 -27.1951947 17.18305829 -21.5 17.25 C-20.76394531 17.25451172 -20.02789062 17.25902344 -19.26953125 17.26367188 C-17.47131842 17.27534858 -15.67314803 17.29327989 -13.875 17.3125 C-15.74066488 13.68456002 -15.74066488 13.68456002 -18.875 11.3125 C-26.43646459 10.69908946 -32.88529085 11.34716884 -39.875 14.3125 C-40.91072896 12.57127451 -41.9281252 10.81913405 -42.9375 9.0625 C-43.79021484 7.60070312 -43.79021484 7.60070312 -44.66015625 6.109375 C-45.875 3.3125 -45.875 3.3125 -45.85546875 1.08984375 C-44.43675356 -1.4819308 -42.85272043 -1.8864031 -40.125 -2.875 C-38.83335937 -3.36033203 -38.83335937 -3.36033203 -37.515625 -3.85546875 C-24.60920888 -7.92213537 -11.56646212 -6.78901037 0 0 Z M-28.875 31.3125 C-28.30047254 35.24325644 -28.30047254 35.24325644 -25.875 38.3125 C-21.8141427 38.77221969 -19.54061318 38.68071155 -15.9375 36.6875 C-13.56837647 34.42349017 -13.56837647 34.42349017 -13.5625 31.0625 C-13.665625 30.155 -13.76875 29.2475 -13.875 28.3125 C-21.88438881 27.77323846 -21.88438881 27.77323846 -28.875 31.3125 Z " fill="#FFFFFF" transform="translate(475.875,50.6875)"/>
<path d="M0 0 C5.55849288 6.04894814 6.71371996 12.99175894 6.515625 20.94140625 C6.50996521 21.81651352 6.50430542 22.69162079 6.49847412 23.59324646 C6.47630435 26.35441706 6.42614771 29.11422993 6.375 31.875 C6.3549098 33.7610488 6.33666347 35.6471182 6.3203125 37.53320312 C6.27992545 42.12723015 6.20160433 46.71836794 6.125 51.3125 C0.185 51.3125 -5.755 51.3125 -11.875 51.3125 C-12.37 49.3325 -12.37 49.3325 -12.875 47.3125 C-13.7 47.9725 -14.525 48.6325 -15.375 49.3125 C-21.47429134 52.81209339 -29.10906071 52.00734231 -35.875 51.3125 C-40.88983354 49.8192295 -43.95324124 46.58276281 -46.875 42.3125 C-48.97052467 38.12145066 -48.28720622 32.87663839 -47.875 28.3125 C-45.72691298 23.30029695 -42.81110109 21.34864566 -38.0703125 19.07421875 C-32.61594976 17.18169075 -27.1951947 17.18305829 -21.5 17.25 C-20.76394531 17.25451172 -20.02789062 17.25902344 -19.26953125 17.26367188 C-17.47131842 17.27534858 -15.67314803 17.29327989 -13.875 17.3125 C-15.74066488 13.68456002 -15.74066488 13.68456002 -18.875 11.3125 C-26.43646459 10.69908946 -32.88529085 11.34716884 -39.875 14.3125 C-40.91072896 12.57127451 -41.9281252 10.81913405 -42.9375 9.0625 C-43.79021484 7.60070312 -43.79021484 7.60070312 -44.66015625 6.109375 C-45.875 3.3125 -45.875 3.3125 -45.85546875 1.08984375 C-44.43675356 -1.4819308 -42.85272043 -1.8864031 -40.125 -2.875 C-38.83335937 -3.36033203 -38.83335937 -3.36033203 -37.515625 -3.85546875 C-24.60920888 -7.92213537 -11.56646212 -6.78901037 0 0 Z M-28.875 31.3125 C-28.30047254 35.24325644 -28.30047254 35.24325644 -25.875 38.3125 C-21.8141427 38.77221969 -19.54061318 38.68071155 -15.9375 36.6875 C-13.56837647 34.42349017 -13.56837647 34.42349017 -13.5625 31.0625 C-13.665625 30.155 -13.76875 29.2475 -13.875 28.3125 C-21.88438881 27.77323846 -21.88438881 27.77323846 -28.875 31.3125 Z " fill="#FFFFFF" transform="translate(272.875,50.6875)"/>
<path d="M0 0 C2.09968382 2.03195208 2.88477812 2.98728417 3.05775452 5.89981079 C3.05553391 6.73031952 3.05331329 7.56082825 3.05102539 8.41650391 C3.05094986 9.35732819 3.05087433 10.29815247 3.05079651 11.26748657 C3.04563522 12.28523163 3.04047394 13.30297668 3.03515625 14.3515625 C3.0337413 15.39194672 3.03232635 16.43233093 3.03086853 17.50424194 C3.02525866 20.83619021 3.01270447 24.16807195 3 27.5 C2.99498627 29.75520736 2.99042314 32.01041578 2.98632812 34.265625 C2.97528602 39.80210907 2.95801475 45.33854325 2.9375 50.875 C-2.0125 50.875 -6.9625 50.875 -12.0625 50.875 C-12.5575 48.895 -12.5575 48.895 -13.0625 46.875 C-13.8875 47.535 -14.7125 48.195 -15.5625 48.875 C-21.66179134 52.37459339 -29.29656071 51.56984231 -36.0625 50.875 C-41.07733354 49.3817295 -44.14074124 46.14526281 -47.0625 41.875 C-49.15802467 37.68395066 -48.47470622 32.43913839 -48.0625 27.875 C-45.91441298 22.86279695 -42.99860109 20.91114566 -38.2578125 18.63671875 C-32.80344976 16.74419075 -27.3826947 16.74555829 -21.6875 16.8125 C-20.95144531 16.81701172 -20.21539063 16.82152344 -19.45703125 16.82617188 C-17.65881842 16.83784858 -15.86064803 16.85577989 -14.0625 16.875 C-15.92816488 13.24706002 -15.92816488 13.24706002 -19.0625 10.875 C-26.62396459 10.26158946 -33.07279085 10.90966884 -40.0625 13.875 C-41.09822896 12.13377451 -42.1156252 10.38163405 -43.125 8.625 C-43.97771484 7.16320312 -43.97771484 7.16320312 -44.84765625 5.671875 C-46.0625 2.875 -46.0625 2.875 -46.04296875 0.65234375 C-44.62425356 -1.9194308 -43.04022043 -2.3239031 -40.3125 -3.3125 C-39.02085937 -3.79783203 -39.02085937 -3.79783203 -37.703125 -4.29296875 C-25.00988015 -8.2924675 -11.02698183 -7.65137515 0 0 Z M-29.0625 30.875 C-28.48797254 34.80575644 -28.48797254 34.80575644 -26.0625 37.875 C-22.0016427 38.33471969 -19.72811318 38.24321155 -16.125 36.25 C-13.75587647 33.98599017 -13.75587647 33.98599017 -13.75 30.625 C-13.853125 29.7175 -13.95625 28.81 -14.0625 27.875 C-22.07188881 27.33573846 -22.07188881 27.33573846 -29.0625 30.875 Z " fill="#FFFFFF" transform="translate(539.0625,51.125)"/>
<path d="M0 0 C5.28 0 10.56 0 16 0 C16.37362461 7.57595739 16.64422493 15.14645257 16.82397461 22.72949219 C16.89895545 25.30238317 17.00098847 27.8746447 17.1315918 30.4453125 C18.24713887 52.98373809 18.24713887 52.98373809 12.62939453 59.89746094 C9.08744358 63.49736226 5.2918946 66.35127001 1 69 C0.67 69 0.34 69 0 69 C0 46.23 0 23.46 0 0 Z " fill="#FECE5E" transform="translate(75,0)"/>
<path d="M0 0 C5.61 0 11.22 0 17 0 C17 20.79 17 41.58 17 63 C14 63 14 63 12.48193359 61.83837891 C11.95937988 61.30647949 11.43682617 60.77458008 10.8984375 60.2265625 C10.03992188 59.3603125 10.03992188 59.3603125 9.1640625 58.4765625 C8.27847656 57.56003906 8.27847656 57.56003906 7.375 56.625 C6.776875 56.02171875 6.17875 55.4184375 5.5625 54.796875 C1.73435747 50.89944482 -0.12824473 48.98948766 -0.11352539 43.36669922 C-0.11344986 42.40585419 -0.11337433 41.44500916 -0.11329651 40.45504761 C-0.10813522 39.41542877 -0.10297394 38.37580994 -0.09765625 37.3046875 C-0.0962413 36.24210724 -0.09482635 35.17952698 -0.09336853 34.08474731 C-0.08775834 30.68146991 -0.07520409 27.27825762 -0.0625 23.875 C-0.05748631 21.57161553 -0.05292318 19.26823003 -0.04882812 16.96484375 C-0.03778559 11.30987064 -0.02051409 5.65494637 0 0 Z " fill="#FECE5E" transform="translate(53,12)"/>
<path d="M0 0 C5.28 0 10.56 0 16 0 C17.49641328 13.2658225 17.62331105 23.01721998 9.125 33.875 C2.97918754 41.51040623 2.97918754 41.51040623 0 43 C0 28.81 0 14.62 0 0 Z " fill="#FDCE5E" transform="translate(11,36)"/>
<path d="M0 0 C5.61 0 11.22 0 17 0 C17 10.89 17 21.78 17 33 C14.69 31.02 12.38 29.04 10 27 C8.34024611 25.65807132 6.67653359 24.32090525 5 23 C3.35 24.65 1.7 26.3 0 28 C0 18.76 0 9.52 0 0 Z " fill="#FECE5E" transform="translate(32,23)"/>
</svg>
